#!OML:ASF F:\VICON\USERDATA\INSTALL\rory3\rory3.ASF
:FULLY-SPECIFIED
:DEGREES
46
root 0.7716484738638908 18.033294722637933 15.7988475950108 -2.9391485099856545 -9.42954401833432 0.3375718537181709
lfemur -13.053650592611673 -3.8149968007346446 -23.267056646778848
ltibia 24.452742735872622
lfoot -2.449907918075149 -2.9352435056489274
ltoes -3.8712497270144013
rfemur -12.480005402331981 6.313638401095909 22.732659882135096
rtibia 61.56246659016871
rfoot -1.5693313823142638 -9.770675808829624
rtoes 10.72577878179101
lowerback 10.567817156021368 1.9961912781153874 1.0165792837431797
upperback 0.344752235039574 2.591045898003716 0.353133713934662
thorax -4.646155038485043 1.275961191083385 -1.4773836022005857
lowerneck -16.154236422794252 -3.207192337913775 -1.7174030740224562
upperneck 20.679120743323917 -4.459186972933003 2.0511858349462755
head 9.237672554985767 -2.074287268147965 0.46761148365405825
lclavicle -4.527033922762757e-16 -7.759433310133703e-16
lhumerus -36.38344634893973 9.703778137317702 77.77695177907746
lradius 21.357042981935866
lwrist 3.6559002783666776
lhand -27.294458049818832 19.847099110291257
lfingers 7.12502
lthumb -0.8433538453285695 49.841239810946405
rclavicle -4.550996030054042e-16 -7.785126367506046e-16
rhumerus -23.909443694879396 -15.993872967494319 -79.75408012279476
rradius 28.296299400889133
rwrist 1.6088596775229451
rhand -18.381229411165883 22.99537300444687
rfingers 7.12502
rthumb 7.914535352572147 -6.943639739678285
47
root 0.6966955748058562 18.10304136547741 16.28918799056619 -3.066227218687362 -8.545053649580801 0.8440725845801444
lfemur -9.787083471813563 -3.369704151330157 -24.43005031651226
ltibia 24.09876955099401
lfoot -4.828611503814632 -1.883248188138095
ltoes -4.164435581362379
rfemur -15.715036582678664 4.455917816193015 22.19837674681228
rtibia 62.99908015041148
rfoot -2.0791035859752824 -8.971048561196085
rtoes 10.205771820127069
lowerback 10.507257440230397 1.6420442516813505 0.06786852088793172
upperback 0.4626914180445306 2.0679212394354405 0.29861948752070666
thorax -4.6878355113644865 1.0373402415852273 -0.9548202030890163
lowerneck -16.135804604762015 -3.0933732121518753 -1.8021488081723505
upperneck 20.60387994882968 -4.251883338190103 1.948306679241193
head 9.200735813236014 -1.982250972607618 0.49142242803052566
lclavicle -4.530220038040557e-16 -7.761707514556712e-16
lhumerus -35.51448637370605 8.751055212257159 78.19889745661212
lradius 22.234788194741235
lwrist 4.527291897464746
lhand -27.482955401595955 20.066499388263836
lfingers 7.12502
lthumb -0.9737981421267156 50.31410431476681
rclavicle -4.572791867167186e-16 -7.802068121276071e-16
rhumerus -24.692279345570526 -17.336962627728095 -79.45366128786864
rradius 27.233649774929134
rwrist 2.595236553758892
rhand -18.084122453105447 22.37847838645013
rfingers 7.12502
rthumb 8.250544894304984 -7.474037920226431
48
root 0.6455716050495146 18.14522998648021 16.130132997986845 -2.997091674216561 -6.910657217424065 0.5809671351125938
lfemur -7.4855959790791 -3.0078708840626542 -24.844506298451133
ltibia 24.58614323762493
lfoot -5.991695985318157 -0.9668473247575173
ltoes -4.427772174983744
rfemur -18.047467831475217 2.7107271855221375 22.199572267303743
rtibia 61.80840453426359
rfoot -2.7181094834594557 -8.743540416145393
rtoes 10.228990759707338
lowerback 9.897441573032147 1.118651338579768 -0.29352043274220296
upperback 0.4855075675114261 1.423800788010533 0.3737180009221889
thorax -4.744332657704142 0.7223410007700704 -0.3776961369192451
lowerneck -16.10885745933272 -2.9661187021194024 -1.8907317603991913
upperneck 20.49041338332663 -4.017108918239634 1.76932694820828
head 9.14983838541193 -1.8819361653129094 0.4934804431701508
lclavicle -4.543274471810226e-16 -7.771508872714697e-16
lhumerus -34.62047085184989 7.861179422297443 78.52784243449683
lradius 23.243895292184764
lwrist 5.524469461285942
lhand -27.671770996408476 20.75945014590662
lfingers 7.12502
lthumb -1.0797611851587132 51.14278469997594
rclavicle -4.577970875108037e-16 -7.8053774935655295e-16
rhumerus -25.427586021981934 -18.52590591826744 -79.13351818060119
rradius 26.272462355574913
rwrist 3.6315785197725297
rhand -17.784247705526788 21.832177291201653
rfingers 7.12502
rthumb 8.571446870326701 -7.924921101557155
49
root 0.5353975000981799 18.073673161820228 17.990216821317798 -2.7582048244710906 -4.4462885356219815 0.07624683159717494
lfemur -5.808822204840087 -3.1033890372816497 -24.654960179933923
ltibia 25.59224009814224
lfoot -7.054815064941373 -0.4779167136769469
ltoes -4.792658747239675
rfemur -20.206716212617764 1.3299137855203353 22.460297629461227
rtibia 58.589430653667705
rfoot -3.1620246443941777 -9.427750220830967
rtoes 10.17874494934409
lowerback 9.651612593608574 0.42773110133662495 -0.28351507234200524
upperback 0.328451836093069 0.6207265817335922 0.6012702744710974
thorax -4.982250835176724 0.3069231824931628 0.20096437620073065
lowerneck -16.05762208036492 -2.854191062313033 -2.030359851312815
upperneck 20.41981527920373 -3.8012835098809807 1.6373159129816042
head 9.112481158562685 -1.7917418429511742 0.5091897267212735
lclavicle -4.552482350574752e-16 -7.778373503493997e-16
lhumerus -33.78111728681319 6.781207941213963 78.83386982742654
lradius 24.476537977595264
lwrist 6.312464425133465
lhand -27.789240183261597 21.49008361138587
lfingers 7.12502
lthumb -1.0500049607223638 52.219837766965234
rclavicle -4.568233145987893e-16 -7.797016964087812e-16
rhumerus -26.280729796707874 -19.37070267532143 -78.84189477571618
rradius 25.683372683116726
rwrist 4.071378485876333
rhand -17.523389043675976 21.516968115087124
rfingers 7.12502
rthumb 8.862129126994649 -8.117143293431585
